<?xml version="1.0" encoding="utf-8"?>
<!-- Generator: Adobe Illustrator 23.0.3, SVG Export Plug-In . SVG Version: 6.00 Build 0)  -->
<svg version="1.1" xmlns="http://www.w3.org/2000/svg" xmlns:xlink="http://www.w3.org/1999/xlink" x="0px" y="0px"
	 viewBox="0 0 1000 1000" style="enable-background:new 0 0 1000 1000;" xml:space="preserve">
<style type="text/css">
	.st0{fill:none;stroke:#808285;stroke-width:2;stroke-miterlimit:10;}
</style>
<g id="Layer_2">
	<rect y="-9.37" width="1009.37" height="1009.37"/>
	<path class="st0" d="M72.46,629.28c5.17-5.87,9.89-13.67,13.5-18.24c5.43-6.86,22.98-39.88,27.67-71.8
		c4.68-31.92,6.81-63.63-10-96.62s-23.83-52.78-17.88-80.02c5.96-27.24,19.53-54.75,48.41-73.58s65.6-25.22,91.62-20.75
		c16.04,2.75,33.96,13.09,47.29,26.41c0,0,25.78,20.04,16.09,48.18c-9.7,28.13-80.52,24.94-114.33,5.11
		c-33.81-19.83-25.5-51.03,10.74-61.47c36.24-10.44,71.36,9.94,76.14,33.74c4.78,23.8-38.24,74.07-95.84,53.95
		s-70.1-30.77-27.59-57.64c42.51-26.87,123.56,2.3,136.54,35.18s-63.71,63.43-121.28,34.42c-28.62-14.42-6.2-32.15,28.49-39.26
		c35.11-7.2,82.8-3.54,102.92,25.42c39.99,57.57-174.48,42.63-179.31-13.62c-4.83-56.25,133.61-4.83,159.54,15.82
		c25.93,20.66-148.99,30.32-165.69-0.88s189.42-3.3,176.9,15.16c-12.53,18.46-106.36-13.84-123.28-47.03s168.11,9.01,162.17,26.15
		c-5.93,17.14-164.15,9.23-171.18-43.95c-7.03-53.18,166.35-3.3,170.08,24.83s-141.3,10.77-143.71-25.71
		c-2.42-36.48,88.78-27.91,111.63-4.83c22.85,23.07-67.9,27.47-89.44,2.2c-12.57-14.74,15.9-14.59,49.61-15.42
		c11.11-0.27,22.23-0.37,33.34-0.27h730.02"/>
</g>
<g id="Layer_3">
	<path class="st0" d="M72.46,629.28c-2.59,2.94-5.3,5.4-8.04,6.74c-8.22,3.99-15.8-3.19,5.75-6.14s101.03,5.75,122.58,7.34
		c21.55,1.6,24.02,0.32,22.43-11.89c-1.6-12.21,4.55-28.81,10.45-36.79s7.14-11.93,5.99-21.43c-1.16-9.5-6.86-13.13-9.74-12.81
		c-2.87,0.32,1.76,10.69,15.88,19.07s41.1,7.82,60.81,3.75c19.71-4.07,16.89-20.83,16.09-27.51c-0.8-6.68,0.29-11.23,4.87-12.13
		c4.58-0.9,11.65-5.11,10.35-10.93c-1.3-5.83-7.29-9.2-13.41-13.89c-6.12-4.68-7.53,0.69-4.71,1.62s17.29,4.42,20.7-0.16
		c3.4-4.58-1.65-7.82-3.78-17.08s7.18-10.64,13.41-14.15c6.22-3.51,1.76-5.21-6.81-3.62s-10.06,5-5.59,7.34
		c4.47,2.34,17.82,2.55,23.3-1.86c5.48-4.42,3.11-12.74,0.24-19.37c-2.87-6.62-14.87-25.11-21.68-41.5c-6.81-16.39,1.7-36.6,0-51.5
		c-1.5-13.12-6.46-62.69-43.79-94.4c-5.07-4.31-10.74-8.28-17.07-11.8c-52.99-29.37-118.32-35.54-164.93,15.32
		s-40.43,87.25-39.8,104.92s28.09,60.44,33.84,100.45c5.75,40.01-7.87,84.27-24.9,109.39C59.35,619.2,33.16,629-1,628.26"/>
</g>
</svg>
